<?xml version="1.0" encoding="UTF-8" standalone="no"?>
<!-- Created with Inkscape (http://www.inkscape.org/) -->

<svg
   xmlns:dc="http://purl.org/dc/elements/1.1/"
   xmlns:cc="http://creativecommons.org/ns#"
   xmlns:rdf="http://www.w3.org/1999/02/22-rdf-syntax-ns#"
   xmlns:svg="http://www.w3.org/2000/svg"
   xmlns="http://www.w3.org/2000/svg"
   xmlns:sodipodi="http://sodipodi.sourceforge.net/DTD/sodipodi-0.dtd"
   xmlns:inkscape="http://www.inkscape.org/namespaces/inkscape"
   version="1.1"
   id="svg886"
   width="100"
   height="100"
   viewBox="0 0 99.999997 100"
   sodipodi:docname="logo.svg"
   inkscape:version="0.92.5 (2060ec1f9f, 2020-04-08)">
  <title
     id="title4935">Vrzion logo</title>
  <metadata
     id="metadata892">
    <rdf:RDF>
      <cc:Work
         rdf:about="">
        <dc:format>image/svg+xml</dc:format>
        <dc:type
           rdf:resource="http://purl.org/dc/dcmitype/StillImage" />
        <dc:title>Vrzion logo</dc:title>
        <cc:license
           rdf:resource="http://creativecommons.org/publicdomain/zero/1.0/" />
        <dc:source>fractal tree</dc:source>
        <dc:subject>
          <rdf:Bag>
            <rdf:li>logo</rdf:li>
          </rdf:Bag>
        </dc:subject>
        <dc:creator>
          <cc:Agent>
            <dc:title>Nz0</dc:title>
          </cc:Agent>
        </dc:creator>
        <dc:date>2022</dc:date>
        <dc:description>a logo for the Vrzion program</dc:description>
      </cc:Work>
      <cc:License
         rdf:about="http://creativecommons.org/publicdomain/zero/1.0/">
        <cc:permits
           rdf:resource="http://creativecommons.org/ns#Reproduction" />
        <cc:permits
           rdf:resource="http://creativecommons.org/ns#Distribution" />
        <cc:permits
           rdf:resource="http://creativecommons.org/ns#DerivativeWorks" />
      </cc:License>
    </rdf:RDF>
  </metadata>
  <defs
     id="defs890" />
  <sodipodi:namedview
     pagecolor="#ffffff"
     bordercolor="#666666"
     borderopacity="1"
     objecttolerance="10000"
     gridtolerance="10000"
     guidetolerance="10000"
     inkscape:pageopacity="0"
     inkscape:pageshadow="2"
     inkscape:window-width="1920"
     inkscape:window-height="1007"
     id="namedview888"
     showgrid="true"
     inkscape:zoom="6.4180457"
     inkscape:cx="47.81569"
     inkscape:cy="52.099089"
     inkscape:window-x="0"
     inkscape:window-y="37"
     inkscape:window-maximized="1"
     inkscape:current-layer="svg886">
    <inkscape:grid
       type="xygrid"
       id="grid896"
       spacingy="4.9999999"
       spacingx="4.9999999"
       empspacing="10"
       color="#003fff"
       opacity="0.1254902"
       empcolor="#ff3f00"
       empopacity="0.25098039" />
  </sodipodi:namedview>
  <path
     id="path4794"
     style="fill:none;stroke:#000000;stroke-width:5;stroke-linecap:butt;stroke-linejoin:miter;stroke-miterlimit:4;stroke-dasharray:none;stroke-opacity:1"
     d="M 49.999996,50.000001 62.054076,37.943819 M 37.945923,62.056182 49.999999,50.000001 62.054076,62.056182 m -30.135191,12.056181 6.027038,-6.028085 6.027038,6.028085 m -18.081115,-18.084276 6.027039,6.028095 -6.027039,6.028096 m 6.027039,-6.028096 h 6.027038 v 6.028096 m 30.135191,-42.19665 -6.027038,6.028095 -6.027038,-6.028095 m 18.081116,18.084277 -6.02704,-6.028086 6.02704,-6.028096 m -6.02704,6.028096 h -6.027038 v -6.028096 m 6.027038,42.19664 -6.027038,-6.028085 -6.027038,6.028085 m 18.081116,-18.084266 -6.02704,6.028085 6.02704,6.028096 m -6.02704,-6.028096 h -6.027038 v 6.028096 m -30.135191,-42.19665 6.027038,6.028095 6.027038,-6.028095 m -18.081115,18.084277 6.027039,-6.028086 -6.027039,-6.028096 m 6.027039,6.028096 h 6.027038 v -6.028096 m 54.243346,-6.028095 -6.027032,6.028095 -6.027039,-6.028095 m 12.054071,12.056191 h -6.027032 v -6.028096 m 12.054087,36.168555 -6.027055,-6.028096 6.027055,-6.028095 M 86.162237,68.084278 v -6.028096 h 6.027032 m -12.054071,12.056181 6.027039,-6.028085 6.027032,6.028085 M 49.999996,50.000001 h 24.108158 m 24.10817,-18.084278 -6.027055,6.028096 6.027055,6.028086 M 86.162237,37.943819 74.108154,50.000001 86.162237,62.056182 M 25.891846,7.8033503 31.918885,13.831447 25.891846,19.859542 M 37.945923,7.80336 v 6.028087 H 31.918885 M 68.081114,1.7752644 62.054076,7.8033503 56.027038,1.7752644 M 68.081114,13.831447 H 62.054076 V 7.8033503 m 12.054078,12.0561917 -6.02704,-6.028095 6.02704,-6.0280967 M 49.999999,50.000001 V 25.887628 M 31.918885,1.7752644 37.945923,7.80336 43.972961,1.7752644 M 37.945923,13.831447 49.999999,25.887628 62.054076,13.831447 m 12.054079,78.365195 -6.027038,-6.028096 6.027038,-6.028087 M 62.054076,92.196642 v -6.028096 h 6.027041 m -36.162232,12.056193 6.027038,-6.028097 6.027038,6.028097 M 31.918885,86.168546 h 6.027038 v 6.028096 m -12.054077,-12.056183 6.027039,6.028087 -6.027039,6.028096 M 49.999999,50.000001 v 24.112362 m 18.081118,24.112376 -6.027041,-6.028097 -6.027038,6.028097 M 62.054076,86.168546 49.999999,74.112363 37.945923,86.168546 M 7.8107317,74.112363 13.837769,68.084278 19.864808,74.112363 M 7.8107317,62.056182 h 6.0270373 v 6.028096 M 1.7836927,31.915723 l 6.027039,6.028096 -6.027039,6.028086 M 13.837769,31.915723 v 6.028096 H 7.8107317 M 19.864808,25.887628 13.837769,31.915723 7.8107317,25.887628 m -6.027039,42.19665 6.027039,-6.028096 -6.027039,-6.028095 M 13.837769,62.056182 25.891846,50.000001 13.837769,37.943819 M 25.891846,50.000001 H 49.999999 L 37.945923,37.943819"
     inkscape:connector-curvature="0" />
  <path
     inkscape:connector-curvature="0"
     id="path4794-0"
     style="fill:none;stroke:#ff8cff;stroke-width:10;stroke-linecap:butt;stroke-linejoin:miter;stroke-miterlimit:4;stroke-dasharray:none;stroke-opacity:1"
     d="m 755.99997,52.000001 72.00003,-72 M 683.99999,124 l 72,-71.999999 L 828,124 m -180.00001,72 36,-36 36,36 m -108,-108 36,36 -36,36 m 36,-36 h 36 v 36 M 864,-91.999999 l -36,36 -36,-36 m 108,108 -36,-36 36,-36 m -36,36 h -36 v -36 M 864,196 828,160 792,196 M 900,88.00001 864,124 l 36,36 m -36,-36 h -36 v 36 m -180.00001,-251.999999 36,36 36,-36 m -108,108 36,-36 -36,-36 m 36,36 h 36 v -36 m 324.00001,-36 -36,36 -36,-36 m 72,72 h -36 v -36 M 1044,160 l -36,-36 36,-36 m -72,72 v -36 h 36 m -72,72 36,-36 36,36 M 755.99997,52.000001 H 900 m 144,-108 -36,36 36,36 m -72,-36 -72,72 L 972,124 m -360.00001,-324 36,36.00001 -36,36 m 72,-72 v 36 h -36 M 864,-235.99999 828,-200 792,-235.99999 m 72,72 H 828 V -200 m 72,72.00001 -36,-36 L 900,-200 M 755.99999,52.000001 v -143.99999 m -108,-144.000001 36,36 36,-36 m -36,72 72,72.000001 L 828,-163.99999 m 72,468 -36,-36.00002 36,-36 m -72,72.00002 v -36.00002 h 36 m -216.00001,72.00002 36,-36 36,36 m -72,-72.00002 h 36 v 36.00002 m -72,-72.00002 36,36 -36,36.00002 m 144,-252.000009 V 195.99999 M 864,340.00001 l -36,-36 -36,36 m 36,-72.00002 -72.00001,-72 -72,72 m -180,-71.99999 36,-36 36,36 m -72,-72 h 36 v 36 m -72,-215.999999 36,36 -36,36 m 72,-72 v 36 h -36 m 72,-72 -36,36 -36,-36 m -36,251.999999 36,-36 -36,-36 m 72,36 72,-71.999999 -72,-72 m 72,72 h 144 l -72,-72" />
  <path
     id="path4794-6"
     style="fill:none;stroke:#fdffff;stroke-width:1;stroke-linecap:butt;stroke-linejoin:miter;stroke-miterlimit:4;stroke-dasharray:none;stroke-opacity:1"
     d="M 49.999996,50.000001 62.054076,37.943819 M 37.945923,62.056182 49.999999,50.000001 62.054076,62.056182 m -30.135191,12.056181 6.027038,-6.028085 6.027038,6.028085 m -18.081115,-18.084276 6.027039,6.028095 -6.027039,6.028096 m 6.027039,-6.028096 h 6.027038 v 6.028096 m 30.135191,-42.19665 -6.027038,6.028095 -6.027038,-6.028095 m 18.081116,18.084277 -6.02704,-6.028086 6.02704,-6.028096 m -6.02704,6.028096 h -6.027038 v -6.028096 m 6.027038,42.19664 -6.027038,-6.028085 -6.027038,6.028085 m 18.081116,-18.084266 -6.02704,6.028085 6.02704,6.028096 m -6.02704,-6.028096 h -6.027038 v 6.028096 m -30.135191,-42.19665 6.027038,6.028095 6.027038,-6.028095 m -18.081115,18.084277 6.027039,-6.028086 -6.027039,-6.028096 m 6.027039,6.028096 h 6.027038 v -6.028096 m 54.243351,-6.028095 -6.02703,6.028095 -6.02704,-6.028095 m 12.05407,12.056191 h -6.02703 v -6.028096 m 12.05408,36.168555 -6.02705,-6.028096 6.02705,-6.028095 m -12.05408,12.056191 v -6.028096 h 6.02703 m -12.05407,12.056181 6.02704,-6.028085 6.02703,6.028085 M 49.999996,50.000001 h 24.108158 m 24.10817,-18.084278 -6.02705,6.028096 6.02705,6.028086 m -12.05408,-6.028086 -12.05409,12.056182 12.05409,12.056181 M 25.891846,7.803349 l 6.027039,6.028098 -6.027039,6.028095 M 37.945923,7.803359 v 6.028088 H 31.918885 M 68.081114,1.775264 62.054076,7.803349 56.027038,1.775264 M 68.081114,13.831447 H 62.054076 V 7.803349 m 12.054078,12.056193 -6.02704,-6.028095 6.02704,-6.028098 M 49.999999,50.000001 V 25.887628 M 31.918885,1.775264 37.945923,7.803359 43.972961,1.775264 M 37.945923,13.831447 49.999999,25.887628 62.054076,13.831447 m 12.054079,78.365191 -6.027038,-6.02809 6.027038,-6.02809 m -12.054079,12.05618 v -6.02809 h 6.027041 m -36.162232,12.05619 6.027038,-6.0281 6.027038,6.0281 M 31.918885,86.168548 h 6.027038 v 6.02809 m -12.054077,-12.05618 6.027039,6.02809 -6.027039,6.02809 M 49.999999,50.000001 v 24.112362 m 18.081118,24.112375 -6.027041,-6.0281 -6.027038,6.0281 M 62.054076,86.168548 49.999999,74.112363 37.945923,86.168548 M 7.810732,74.112363 l 6.027037,-6.028085 6.027039,6.028085 M 7.810732,62.056182 h 6.027037 v 6.028096 M 1.783693,31.915723 7.810732,37.943819 1.783693,43.971905 M 13.837769,31.915723 v 6.028096 H 7.810732 M 19.864808,25.887628 13.837769,31.915723 7.810732,25.887628 M 1.783693,68.084278 7.810732,62.056182 1.783693,56.028087 M 13.837769,62.056182 25.891846,50.000001 13.837769,37.943819 M 25.891846,50.000001 H 49.999999 L 37.945923,37.943819"
     inkscape:connector-curvature="0" />
</svg>
